<svg class="svg-icon" style="width: 1em;height: 1em;vertical-align: middle;fill: currentColor;overflow: hidden;" viewBox="0 0 1024 1024" version="1.1" xmlns="http://www.w3.org/2000/svg"><path d="M512 0C228.693 0 0 228.693 0 512s228.693 512 512 512 512-228.693 512-512S795.307 0 512 0z m0 69.973c244.053 0 442.027 197.973 442.027 442.027 0 87.04-25.6 168.96-69.973 237.227-73.387-78.507-170.667-133.12-281.6-151.893 69.973-34.133 119.467-105.813 119.467-187.733 0-116.053-93.867-209.92-209.92-209.92s-209.92 93.867-209.92 209.92c0 83.627 47.787 155.307 119.467 187.733-110.933 20.48-208.213 75.093-281.6 153.6-44.373-68.267-69.973-150.187-69.973-238.933 0-244.053 197.973-442.027 442.027-442.027z" fill="#888888" /></svg>