<svg width="237" height="236" viewBox="0 0 237 236" fill="none" xmlns="http://www.w3.org/2000/svg">
<path d="M107 0.500048C73.7003 3.50005 41.8003 21.7001 22.3003 48.9001C-0.899706 81.4001 -6.3997 122.8 7.7003 159.8C13.8003 175.9 22.7003 189.6 34.8003 201.7C62.6003 229.4 102 241.3 140.9 233.8C167.4 228.7 193.5 212.9 210 192.1C238.9 155.6 244.2 106.2 223.5 65C214.4 46.8 200.6 31.2 183.9 20.1C161 4.80005 134.4 -1.89995 107 0.500048ZM128.6 11C153.4 13.5 176.1 24.3001 193.9 42.2001C219.8 68 230.6 104.1 223.3 139.8C219.1 160.3 209 178.8 193.9 193.9C168.1 219.8 132 230.6 96.3003 223.3C75.8003 219.1 57.3003 209.1 42.2003 193.9C13.0003 164.8 3.2003 122.8 16.2003 83.7C21.5003 67.8 29.9003 54.4 42.2003 42.1C54.6003 29.6 68.0003 21.4 84.4003 16C99.1003 11.2 113.8 9.50005 128.6 11Z" fill="#FCC108"/>
<path d="M155.4 63.5C154.6 63.9 152.2 65.9 150.2 68L146.4 71.8L155.9 81.3L165.4 90.8L169.6 86.6C173.3 82.8 173.7 82.2 173.7 80.5C173.7 78.7 173.2 78.1 166.1 70.9C161.9 66.7 158.1 63.2 157.6 63C157.3 63 156.2 63.1 155.4 63.5Z" fill="#FCC108"/>
<path d="M107.1 110.6L70.7002 146.3L80.1002 155.7L89.5002 165.1L125.6 129.7C145.5 110.3 161.8 94.1 161.9 93.9C162.1 93.6 143.6 74.6 143.4 74.8C143.4 74.9 127.1 90.9 107.1 110.6Z" fill="#FCC108"/>
<path d="M67.5999 149.7C66.9999 151.4 61.7999 172 61.8999 172.1C62.0999 172.3 85.8999 167.8 86.1999 167.6C86.2999 167.5 82.1999 163.3 77.0999 158.2C70.8999 152.1 67.6999 149.2 67.5999 149.7Z" fill="#FCC108"/>
</svg>
